<svg width="25" height="25" fill="none" xmlns="http://www.w3.org/2000/svg"><path d="M24.965 13.915l-4.72-11.852a.49.49 0 00-.638-.274L.457 9.414a.48.48 0 00-.195.156.485.485 0 00-.262.426v12.76c0 .27.22.49.49.49h20.613a.49.49 0 00.49-.49v-6.97l3.098-1.233a.49.49 0 00.274-.638zm-4.353 8.35H.982V10.486h19.63v11.779zM8.188 9.507l8.217-3.274a3.905 3.905 0 002.814 1.213l.82 2.061H8.189zm13.405 5.226V9.996a.49.49 0 00-.49-.491h-.008l-1.04-2.612a.41.41 0 00-.04-.062.485.485 0 00-.513-.378 2.935 2.935 0 01-2.573-1.108.486.486 0 00-.63-.11.552.552 0 00-.07.013L6.199 9.243a.485.485 0 00-.27.262H2.882l16.632-6.623 4.358 10.942-2.279.909z" fill="#1967D2"/><path d="M2.313 18.952a2.934 2.934 0 011.981 1.978.49.49 0 00.47.35.45.45 0 00.076-.01c.022.006.045.01.067.013h11.779a.424.424 0 00.06-.012c.245.06.492-.09.551-.336l.001-.003a2.934 2.934 0 011.981-1.98.485.485 0 00.337-.54.485.485 0 00.014-.073v-3.926a.45.45 0 00-.015-.073.484.484 0 00-.336-.54 2.931 2.931 0 01-1.98-1.982.485.485 0 00-.544-.336.453.453 0 00-.07-.014H4.908a.478.478 0 00-.073.015.485.485 0 00-.54.336 2.934 2.934 0 01-1.98 1.981.484.484 0 00-.337.54.496.496 0 00-.014.073v3.926a.45.45 0 00.014.068c-.04.24.103.473.336.545zm.631-4.34a3.894 3.894 0 002.163-2.162h11.379a3.895 3.895 0 002.163 2.162v3.527a3.9 3.9 0 00-2.163 2.163H5.106a3.9 3.9 0 00-2.162-2.163v-3.527z" fill="#1967D2"/><path d="M10.796 19.32a2.945 2.945 0 100-5.889 2.945 2.945 0 000 5.89zm0-4.908a1.963 1.963 0 110 3.927 1.963 1.963 0 010-3.926zM5.398 17.112a.736.736 0 100-1.473.736.736 0 000 1.473zm0-.982a.245.245 0 110 .491.245.245 0 010-.49zM16.195 17.112a.736.736 0 100-1.473.736.736 0 000 1.473zm0-.982a.245.245 0 110 .491.245.245 0 010-.49z" fill="#1967D2"/></svg>