<svg width="25" height="25" fill="none" xmlns="http://www.w3.org/2000/svg"><g clip-path="url(#prefix__clip0)"><path d="M24.596 5.986L12.83.078a.733.733 0 00-.658 0L.404 5.986a.733.733 0 00.002 1.31l1.059.527v11.395A2.2 2.2 0 000 21.289v2.978c0 .405.328.733.732.733h2.93a.732.732 0 00.733-.733V21.29a2.2 2.2 0 00-1.465-2.071V8.553l1.513.754V12.5c0 1.441.888 2.768 2.501 3.735 1.496.898 3.469 1.392 5.556 1.392 4.36 0 8.057-2.177 8.057-5.127V9.307l4.037-2.01a.733.733 0 00.002-1.311zM2.93 23.536H1.465v-2.247c0-.402.326-.73.728-.732H2.202c.402.002.728.33.728.732v2.246zM19.092 12.5c0 1.985-3.019 3.662-6.592 3.662-3.573 0-6.592-1.677-6.592-3.662v-2.464l6.266 3.12a.734.734 0 00.652 0l6.266-3.12V12.5zm-6.592-.818L2.37 6.638 12.5 1.552l10.13 5.086-10.13 5.044z" fill="#1967D2"/></g><defs><clipPath id="prefix__clip0"><path fill="#fff" d="M0 0h25v25H0z"/></clipPath></defs></svg>