<svg width="20" height="20" fill="none" xmlns="http://www.w3.org/2000/svg"><path d="M17.071 2.929A9.935 9.935 0 0010 0a9.935 9.935 0 00-7.071 2.929A9.935 9.935 0 000 10a9.935 9.935 0 002.929 7.071A9.935 9.935 0 0010 20a9.984 9.984 0 005.174-1.441.781.781 0 00-.81-1.337A8.422 8.422 0 0110 18.437c-4.652 0-8.438-3.785-8.438-8.437 0-4.652 3.786-8.438 8.438-8.438 4.652 0 8.438 3.786 8.438 8.438a8.403 8.403 0 01-1.431 4.683.781.781 0 101.299.868A9.96 9.96 0 0020 10a9.935 9.935 0 00-2.929-7.071z" fill="#1967D2"/><path d="M10 2.969a.781.781 0 00-.781.781v5.926l-2.865 2.865a.781.781 0 101.105 1.105l3.093-3.094a.781.781 0 00.23-.552V3.75A.781.781 0 0010 2.969z" fill="#1967D2"/></svg>