<svg width="17" height="23" fill="none" xmlns="http://www.w3.org/2000/svg"><path d="M8.5 0C3.813 0 0 3.813 0 8.5c0 3.35 1.402 6.738 4.055 9.798C6.036 20.584 8 21.88 8.083 21.933a.76.76 0 00.834 0c.082-.054 2.046-1.349 4.028-3.635C15.598 15.238 17 11.85 17 8.501 17 3.813 13.187 0 8.5 0zm0 20.36C6.936 19.195 1.524 14.712 1.524 8.5c0-3.846 3.13-6.976 6.976-6.976A6.984 6.984 0 0115.476 8.5c0 6.21-5.413 10.694-6.976 11.859z" fill="#1967D2"/><path d="M8.5 5.125A3.377 3.377 0 005.128 8.5 3.377 3.377 0 008.5 11.872 3.377 3.377 0 0011.874 8.5a3.378 3.378 0 00-3.373-3.374zm0 5.223c-1.02 0-1.85-.83-1.85-1.849 0-1.02.83-1.85 1.85-1.85s1.85.83 1.85 1.85-.83 1.85-1.85 1.85z" fill="#1967D2"/></svg>