<svg xmlns="http://www.w3.org/2000/svg" viewBox="0 0 44 44" fill="#fff" class="mr-2" width="35px" height="35px"><g><path d="M30.892 0H13.108C5.88 0 0 5.88 0 13.108v17.784C0 38.12 5.88 44 13.108 44h17.784C38.12 44 44 38.12 44 30.892V13.108C44 5.88 38.12 0 30.892 0zm8.682 30.892a8.682 8.682 0 01-8.682 8.682H13.108a8.682 8.682 0 01-8.682-8.682V13.108a8.681 8.681 0 018.682-8.682h17.784a8.681 8.681 0 018.682 8.682v17.784z"/><path d="M22 10.477c-6.354 0-11.523 5.17-11.523 11.523 0 6.354 5.17 11.524 11.523 11.524 6.355 0 11.524-5.17 11.524-11.524 0-6.354-5.17-11.523-11.524-11.523zm0 18.565a7.041 7.041 0 110-14.083 7.041 7.041 0 010 14.083z"/><circle transform="translate(33 11)" r="2.619"/></g></svg>