<svg width="25" height="25" fill="none" xmlns="http://www.w3.org/2000/svg"><g clip-path="url(#prefix__prefix__clip0)" fill="#1967D2"><path d="M22.95 8.79h-6.868c.022-.242.033-.486.033-.732C16.115 3.615 12.501 0 8.058 0a8.056 8.056 0 00-4.026 1.077.488.488 0 10.488.845A7.077 7.077 0 018.058.977a7.09 7.09 0 017.08 7.08 7.09 7.09 0 01-7.08 7.082 7.002 7.002 0 01-4.44-1.566.489.489 0 00-.45-.086l-1.297.339.508-1.116a.488.488 0 00-.05-.49A7.027 7.027 0 01.977 8.058c0-1.248.328-2.474.95-3.546a.488.488 0 00-.845-.49A8.056 8.056 0 000 8.058c0 1.619.474 3.17 1.375 4.502l-.818 1.796a.488.488 0 00.568.674l2.076-.542a8.081 8.081 0 005.979 1.549v4.276c0 1.13.92 2.05 2.05 2.05h6.906l3.088 2.527a.488.488 0 00.797-.378v-2.149h.928c1.131 0 2.051-.92 2.051-2.05V10.84c0-1.131-.92-2.05-2.05-2.05zm1.073 11.523c0 .592-.481 1.074-1.074 1.074h-1.416a.488.488 0 00-.488.488v1.606l-2.412-1.973c-.133-.121-.249-.121-.51-.121H11.23a1.075 1.075 0 01-1.074-1.075v-4.475a8.085 8.085 0 005.776-6.071h7.017c.593 0 1.074.481 1.074 1.074v9.473z"/><path d="M19.52 17.022a.488.488 0 00-.209-.93h-.2l-1.574-3.589a.489.489 0 00-.895 0l-1.574 3.59h-.2a.488.488 0 00-.208.929l-.587 1.336a.488.488 0 00.895.393l.738-1.682h2.768l.738 1.682a.488.488 0 10.894-.393l-.587-1.336zm-3.386-.93l.956-2.177.955 2.177h-1.91zM2.705 3.193a.493.493 0 00.488-.488.492.492 0 00-.488-.488.491.491 0 00-.488.488.492.492 0 00.488.488zm2.438 7.837a.488.488 0 10.47.856A5.592 5.592 0 008.03 9.264a5.593 5.593 0 002.416 2.622.487.487 0 10.47-.857A4.618 4.618 0 018.57 7.67h2.168a.488.488 0 100-.976h-2.22V4.658a.488.488 0 10-.977 0v2.035H5.777a.488.488 0 100 .976H7.49a4.618 4.618 0 01-2.346 3.36z"/></g><defs><clipPath id="prefix__prefix__clip0"><path fill="#fff" d="M0 0h25v25H0z"/></clipPath></defs></svg>