<svg width="23" height="23" fill="none" xmlns="http://www.w3.org/2000/svg"><g clip-path="url(#prefix__clip0)" fill="#1967D2"><path d="M19.438 21.452h-1.37v-2.444c0-2.45-1.344-4.702-3.785-6.342-.308-.208-.5-.654-.5-1.166 0-.511.192-.958.5-1.166 2.441-1.64 3.785-3.892 3.786-6.342V1.548h1.369a.774.774 0 000-1.548H3.56a.774.774 0 000 1.548h1.37v2.444c0 2.45 1.343 4.702 3.784 6.342.31.208.501.654.501 1.166 0 .512-.192.958-.5 1.166-2.442 1.64-3.786 3.892-3.786 6.342v2.444H3.56a.774.774 0 000 1.548h15.878a.774.774 0 000-1.548zm-12.96-2.444c0-2.588 1.942-4.28 3.1-5.058.743-.498 1.186-1.414 1.186-2.45 0-1.036-.443-1.952-1.186-2.45-1.158-.778-3.1-2.47-3.1-5.058V1.548H16.52v2.444c0 2.588-1.943 4.28-3.101 5.058-.742.499-1.185 1.414-1.185 2.45 0 1.036.443 1.951 1.185 2.45 1.158.778 3.1 2.47 3.1 5.058v2.444h-.256c-.636-2.391-3.882-4.99-4.288-5.307a.774.774 0 00-.953 0c-.406.317-3.653 2.916-4.289 5.307h-.256v-2.444zm8.16 2.444H8.36c.51-1.192 1.966-2.7 3.14-3.698 1.173.998 2.629 2.506 3.138 3.698z"/><path d="M11.498 14.792a.776.776 0 00.547-1.32.78.78 0 00-.547-.227.78.78 0 00-.547.226.78.78 0 00-.226.547c0 .204.082.404.226.547a.78.78 0 00.547.227zM11.5 10.688a.774.774 0 00.774-.773V8.547a.774.774 0 10-1.547 0v1.368c0 .427.346.773.773.773z"/></g><defs><clipPath id="prefix__clip0"><path fill="#fff" d="M0 0h23v23H0z"/></clipPath></defs></svg>