<svg width="28" height="28" fill="none" xmlns="http://www.w3.org/2000/svg"><path d="M27.994 15.068c-.033-.775-.792-1.394-2.259-1.84-1.138-.341-2.583-.547-4.145-.58V6.693a.604.604 0 00-.084-.278c-.156-.675-.91-1.222-2.242-1.624-1.256-.38-2.896-.586-4.62-.586-1.718 0-3.341.207-4.574.586-1.01.313-2.22.893-2.22 1.891 0 .062.005.123.016.184l.061 2.544A6.676 6.676 0 000 15.967a6.686 6.686 0 006.678 6.677 6.64 6.64 0 004.206-1.495c1.043.246 2.27.38 3.57.39.285 1.546 3.633 2.255 6.751 2.255 1.718 0 3.342-.213 4.575-.597 1.01-.313 2.22-.899 2.22-1.897v-6.126c0-.033 0-.072-.006-.106zm-7.57-5.288c0 .072-.268.457-1.478.825-1.133.34-2.7.541-4.296.541-1.378 0-2.728-.145-3.8-.418-.016-.006-.027-.006-.044-.011a6.435 6.435 0 00-1.746-.988l-.04-1.573c.386.195.788.352 1.206.463 1.21.352 2.778.541 4.424.541 1.718 0 3.364-.206 4.62-.585a6.693 6.693 0 001.21-.486v1.462c-.062.078-.056.15-.056.229zm-10.02-3.911c1.127-.346 2.634-.541 4.24-.541 1.596 0 3.164.195 4.296.54 1.21.369 1.478.748 1.478.82 0 .079-.273.464-1.484.827-1.132.34-2.694.535-4.29.535-1.54 0-3.001-.178-4.111-.502-1.2-.346-1.534-.725-1.562-.848 0-.011-.006-.011-.006-.011.006-.106.262-.463 1.44-.82zm.017 14.215a5.563 5.563 0 01-7.855-.369 5.563 5.563 0 01.368-7.854 5.556 5.556 0 013.744-1.445c.558 0 1.11.083 1.646.245a5.583 5.583 0 013.804 4.19c.073.368.112.747.112 1.121a5.528 5.528 0 01-1.819 4.112zm1.417.122a6.735 6.735 0 001.071-1.835c.474.039.965.067 1.479.073v.1l.033 1.891c-.864-.011-1.73-.09-2.583-.229zm1.49-4.898c.323.023.664.034 1.01.04l.033 1.974c-.39-.005-.776-.022-1.144-.05a6.857 6.857 0 00.1-1.964zm1.372-1.071h-.056c-.535 0-1.054-.022-1.534-.056a6.614 6.614 0 00-.998-2.075c.836.106 1.679.162 2.527.162 1.724 0 3.37-.207 4.625-.586.418-.123.82-.285 1.205-.48v1.462c-2.394.067-4.854.569-5.769 1.573zm.737.887c0-.006 0-.011.005-.022.05-.15.446-.52 1.601-.843 1.082-.306 2.494-.474 3.978-.474h.095c1.595 0 3.157.184 4.295.53 1.189.357 1.468.725 1.473.81v.005c-.005.083-.284.468-1.523.836-1.143.34-2.65.525-4.24.525-1.54 0-3.001-.179-4.111-.497-1.2-.345-1.529-.73-1.562-.848l-.011-.022zm10.02 7.013c-1.128.351-2.83.507-4.436.507-1.612 0-2.929-.15-4.045-.49-1.177-.363-1.422-.737-1.422-.82v-.012l-.028-1.618c.446.218.91.385 1.389.508 1.172.307 2.661.48 4.19.48 1.723 0 3.358-.207 4.608-.586a7.144 7.144 0 001.171-.474v1.673h.006c0 .079-.257.463-1.434.832zm1.438-4.106h-.005c0 .055-.034.122-.034.184 0 .078-.262.457-1.467.825-1.143.346-2.666.536-4.279.536-3.09 0-5.171-.697-5.606-1.239l-.006-.468-.022-1.283c.39.195.797.351 1.216.468 1.21.352 2.778.542 4.424.542 1.696 0 3.314-.201 4.558-.57a6.387 6.387 0 001.221-.48v1.485z" fill="#1967D2"/><path d="M8.708 16.759a2.109 2.109 0 00-2.03-1.534.99.99 0 110-1.981c.546 0 .992.446.992.993a.56.56 0 00.558.558.56.56 0 00.558-.558c0-.943-.625-1.774-1.534-2.03v-.252a.56.56 0 00-.558-.558.56.56 0 00-.558.558v.24a2.107 2.107 0 00.541 4.14.99.99 0 11-.987.993.56.56 0 00-.558-.558.56.56 0 00-.558.558 2.12 2.12 0 001.562 2.036v.485a.56.56 0 00.558.558.56.56 0 00.558-.558v-.49a2.105 2.105 0 001.456-2.6z" fill="#1967D2"/></svg>