<svg width="20" height="20" fill="none" xmlns="http://www.w3.org/2000/svg"><g clip-path="url(#prefix__clip0)" fill="#1967D2"><path d="M17.708 20H2.292A2.294 2.294 0 010 17.708V3.958a2.293 2.293 0 012.292-2.291h15.416A2.293 2.293 0 0120 3.958v13.75A2.294 2.294 0 0117.708 20zM2.292 2.917c-.574 0-1.042.467-1.042 1.041v13.75c0 .575.468 1.042 1.042 1.042h15.416c.575 0 1.042-.468 1.042-1.042V3.958c0-.574-.468-1.041-1.042-1.041H2.292z"/><path d="M19.375 7.917H.625a.625.625 0 010-1.25h18.75a.625.625 0 010 1.25zM4.791 5a.625.625 0 01-.625-.625V.625a.625.625 0 011.25 0v3.75c0 .345-.28.625-.625.625zM15.209 5a.625.625 0 01-.625-.625V.625a.625.625 0 011.25 0v3.75c0 .345-.28.625-.625.625z"/></g><defs><clipPath id="prefix__clip0"><path fill="#fff" d="M0 0h20v20H0z"/></clipPath></defs></svg>