<svg width="51" height="51" fill="none" xmlns="http://www.w3.org/2000/svg"><g clip-path="url(#prefix__clip0)"><path d="M10.925 14.22h38.843a4.854 4.854 0 00-4.855-4.855H6.069a4.854 4.854 0 00-4.855 4.855v22.663a4.854 4.854 0 004.855 4.855V19.076a4.854 4.854 0 014.856-4.856z" fill="#D4E1F4"/><path d="M49.174 13.152L25.49 26.359 1.81 13.152A1.214 1.214 0 10.63 15.276l24.277 13.535c.183.1.387.154.595.157a1.15 1.15 0 00.595-.157l24.277-13.535a1.217 1.217 0 00.474-1.651 1.248 1.248 0 00-1.675-.473z" fill="#1AE5BE"/><path d="M44.913 8.15H6.069A6.072 6.072 0 000 14.22v22.663a6.072 6.072 0 006.07 6.07h38.843a6.072 6.072 0 006.07-6.07V14.22a6.072 6.072 0 00-6.07-6.07zm3.642 28.72a3.652 3.652 0 01-3.642 3.642H6.069a3.652 3.652 0 01-3.641-3.642V14.22a3.652 3.652 0 013.641-3.642h38.844a3.652 3.652 0 013.642 3.642v22.65z" fill="#0635C9"/></g><defs><clipPath id="prefix__clip0"><path fill="#fff" d="M0 0h51v51H0z"/></clipPath></defs></svg>