<svg width="51" height="51" fill="none" xmlns="http://www.w3.org/2000/svg"><g clip-path="url(#prefix__clip0)"><path d="M16.987 31.71c-7.513-7.832-7.52-20.524-.017-28.362a19.269 19.269 0 00-5.082 3.805h-.001c-7.52 7.838-7.52 20.544 0 28.381l13.616 14.191 4.385-4.57-12.901-13.446z" fill="#D4E1F4"/><path d="M25.504 30.732c-6.338 0-11.475-5.138-11.475-11.476 0-6.337 5.137-11.475 11.475-11.475 6.337 0 11.475 5.138 11.475 11.476 0 6.337-5.138 11.474-11.475 11.474zm0-20.4a8.925 8.925 0 100 17.85 8.925 8.925 0 000-17.85z" fill="#1AE5BE"/><path d="M25.503 51c-.347 0-.68-.141-.92-.392L10.967 36.416c-3.866-4.03-5.995-9.382-5.995-15.073 0-5.69 2.13-11.044 5.995-15.073l.007-.007C14.853 2.224 20.012 0 25.504 0c5.49 0 10.65 2.225 14.529 6.264l.006.007c3.866 4.03 5.995 9.382 5.995 15.073 0 5.691-2.13 11.044-5.995 15.073l-13.616 14.19c-.24.251-.572.393-.92.393zM12.801 8.042c-7.035 7.339-7.033 19.273.006 26.61l12.696 13.231L38.2 34.651c7.038-7.336 7.04-19.27.005-26.609l-.007-.007C34.804 4.498 30.296 2.55 25.503 2.55c-4.792 0-9.3 1.948-12.695 5.485l-.007.007z" fill="#0635C9"/></g><defs><clipPath id="prefix__clip0"><path fill="#fff" d="M0 0h51v51H0z"/></clipPath></defs></svg>