<svg width="51" height="51" fill="none" xmlns="http://www.w3.org/2000/svg"><path d="M17.187 49.41V9.144a4.093 4.093 0 014.093-4.093h17.623a4.092 4.092 0 00-4.083-3.825H16.18a4.093 4.093 0 00-4.093 4.093v40.264a4.093 4.093 0 004.093 4.093h1.017a4.318 4.318 0 01-.01-.268z" fill="#D4E1F4"/><path d="M27.995 46.265h-4.99a1.275 1.275 0 110-2.55h4.99a1.275 1.275 0 110 2.55z" fill="#1AE5BE"/><path d="M40.162 5.368A5.368 5.368 0 0034.795 0h-18.59a5.368 5.368 0 00-5.368 5.368v40.264A5.368 5.368 0 0016.205 51h18.59a5.368 5.368 0 005.367-5.368V5.368zM13.387 9.18h24.225v29.835H13.387V9.18zm2.793-6.63h18.64a2.759 2.759 0 012.792 2.724V6.63H13.387V5.32a2.758 2.758 0 012.748-2.77h.044zm18.64 45.9H16.18c-1.554 0-2.793-1.312-2.793-2.866v-4.019h24.225v4.02c0 1.553-1.238 2.865-2.792 2.865z" fill="#0635C9"/></svg>